<svg width="17" height="35" viewBox="0 0 17 35" fill="none" xmlns="http://www.w3.org/2000/svg">
<path d="M15.939 0.941458H11.0306C4.77925 0.878904 3.9808 4.74809 3.9808 8.93556V11.9805H1.22121C1.09649 11.9638 0.969595 11.9762 0.850399 12.0165C0.731203 12.0568 0.622909 12.1241 0.533929 12.2131C0.44495 12.3021 0.377679 12.4104 0.337343 12.5296C0.297007 12.6488 0.28469 12.7757 0.301351 12.9004V18.4199C0.28469 18.5447 0.297007 18.6716 0.337343 18.7908C0.377679 18.91 0.44495 19.0183 0.533929 19.1073C0.622909 19.1963 0.731203 19.2635 0.850399 19.3039C0.969595 19.3442 1.09649 19.3565 1.22121 19.3399H3.9808V33.1387C3.96547 33.2636 3.97891 33.3904 4.02008 33.5094C4.06125 33.6284 4.12906 33.7364 4.21835 33.8251C4.30763 33.9139 4.41602 33.9811 4.53523 34.0215C4.65444 34.062 4.78133 34.0747 4.90619 34.0586H10.5266C11.0693 34.1211 11.509 33.6814 11.336 33.1387L11.3397 19.3399H15.939C16.0638 19.3565 16.1906 19.3442 16.3098 19.3039C16.429 19.2635 16.5373 19.1963 16.6263 19.1073C16.7153 19.0183 16.7826 18.91 16.8229 18.7908C16.8632 18.6716 16.8755 18.5447 16.8589 18.4199V12.9004C16.8755 12.7757 16.8632 12.6488 16.8229 12.5296C16.7826 12.4104 16.7153 12.3021 16.6263 12.2131C16.5373 12.1241 16.429 12.0568 16.3098 12.0165C16.1906 11.9762 16.0638 11.9638 15.939 11.9805H11.3342L11.3397 9.22074C11.5182 8.04508 11.5182 8.23642 12.6091 8.30082H15.9004C16.1561 8.24378 16.4284 8.27506 16.6197 8.08924C16.8111 7.90341 16.9214 7.64952 16.857 7.3809V1.86138C16.874 1.73674 16.862 1.60987 16.8219 1.49065C16.7818 1.37142 16.7147 1.26307 16.6259 1.17404C16.537 1.085 16.4288 1.01769 16.3097 0.97735C16.1905 0.937007 16.0637 0.924725 15.939 0.941458ZM14.9548 6.35795L12.6478 6.26964C9.79066 6.26964 9.55149 7.82062 9.55149 9.4084L9.54414 12.8967C9.54389 13.0259 9.56913 13.1539 9.61839 13.2733C9.66765 13.3927 9.73998 13.5012 9.83123 13.5926C9.92248 13.6841 10.0309 13.7566 10.1502 13.8061C10.2695 13.8556 10.3974 13.8811 10.5266 13.8811H15.0192V17.4356H10.5302C10.2695 17.4356 10.0194 17.5391 9.83491 17.7233C9.65038 17.9075 9.54646 18.1574 9.54598 18.4181L9.54414 32.2187H5.82053V18.4199C5.82053 17.8772 5.45075 17.4375 4.90619 17.4375H2.14108V13.8829H4.90619C5.03527 13.8831 5.16313 13.8578 5.28245 13.8086C5.40178 13.7593 5.51023 13.6871 5.6016 13.5959C5.78557 13.4101 5.81869 13.1598 5.81869 12.8986V8.93372C5.81869 4.8088 6.65209 2.84385 11.0288 2.84385H14.9529V6.35795H14.9548Z" fill="white"/>
</svg>
